<svg xmlns="http://www.w3.org/2000/svg" viewBox="0 0 275.44 202.85"><defs><style>.a{fill:#fff;}.a,.b{stroke:#3d4752;stroke-miterlimit:10;stroke-width:3px;}.b{fill:none;}.c{fill:#3d4752;}</style></defs><title>featured</title><path class="a" d="M3,84.28a4.32,4.32,0,0,1,4.27-4.37h64.1a4.38,4.38,0,0,1,4.37,4.37v35.2a4.44,4.44,0,0,1-4.37,4.37h-64A4.38,4.38,0,0,1,3,119.48V84.28Z"/><path class="a" d="M201.2,84.28a4.32,4.32,0,0,1,4.27-4.37h64.1a4.38,4.38,0,0,1,4.37,4.37v35.2a4.44,4.44,0,0,1-4.37,4.37h-64a4.38,4.38,0,0,1-4.37-4.37V84.28Z"/><path class="a" d="M201.2,161.78a4.32,4.32,0,0,1,4.27-4.37h64.1a4.38,4.38,0,0,1,4.37,4.37V197a4.44,4.44,0,0,1-4.37,4.37h-64A4.38,4.38,0,0,1,201.2,197v-35.2Z"/><path class="a" d="M1.5,161.78a4.32,4.32,0,0,1,4.27-4.37h64.1a4.38,4.38,0,0,1,4.37,4.37V197a4.44,4.44,0,0,1-4.37,4.37h-64A4.38,4.38,0,0,1,1.5,197v-35.2Z"/><line class="b" x1="137.72" y1="36.29" x2="137.72" y2="66.02"/><path class="c" d="M137.72,75.07a45.51,45.51,0,0,0-7.13-12.82l7.13,2.58,7.13-2.58C142,65.53,139.3,70.82,137.72,75.07Z"/><line class="b" x1="108.08" y1="101.84" x2="84.81" y2="101.84"/><path class="c" d="M75.76,101.84a45.51,45.51,0,0,0,12.82-7.13L86,101.84,88.58,109C85.3,106.11,80,103.41,75.76,101.84Z"/><line class="b" x1="201.2" y1="177.88" x2="183.82" y2="177.88"/><path class="c" d="M174.53,177.88a45.51,45.51,0,0,0,12.82-7.13l-2.58,7.13,2.58,7.12A45.49,45.49,0,0,0,174.53,177.88Z"/><path class="a" d="M118.31,1.5h38.83a17.4,17.4,0,0,1,17.4,17.4h0a17.4,17.4,0,0,1-17.4,17.4H118.31a17.4,17.4,0,0,1-17.4-17.4h0A17.4,17.4,0,0,1,118.31,1.5Z"/><path class="a" d="M118.31,160.48h38.83a17.4,17.4,0,0,1,17.4,17.4h0a17.4,17.4,0,0,1-17.4,17.4H118.31a17.4,17.4,0,0,1-17.4-17.4h0A17.4,17.4,0,0,1,118.31,160.48Z"/><path class="a" d="M134.78,126.87L106,105.81a5,5,0,0,1-.06-8l28.76-21.72a5,5,0,0,1,6,0l28.76,21.72a5,5,0,0,1-.06,8l-28.76,21.06A5,5,0,0,1,134.78,126.87Z"/><line class="b" x1="171.45" y1="101.44" x2="191.52" y2="101.44"/><path class="c" d="M200.76,101.44a45.51,45.51,0,0,0-12.82,7.13l2.58-7.13-2.58-7.13A45.51,45.51,0,0,0,200.76,101.44Z"/><line class="b" x1="236.32" y1="123.85" x2="236.32" y2="151.77"/><path class="c" d="M236.32,157.24a45.51,45.51,0,0,0-7.13-12.82l7.13,2.58,7.18-2.58C240.6,147.7,237.9,153,236.32,157.24Z"/><line class="b" x1="39.38" y1="123.85" x2="39.38" y2="149.5"/><path class="c" d="M39.38,157.41a45.51,45.51,0,0,0-7.13-12.82l7.13,2.58,7.12-2.58A45.32,45.32,0,0,0,39.38,157.41Z"/></svg>